<svg xmlns="http://www.w3.org/2000/svg" xmlns:xlink="http://www.w3.org/1999/xlink" width="500" zoomAndPan="magnify" viewBox="0 0 375 374.999991" height="500" preserveAspectRatio="xMidYMid meet" version="1.0"><path fill="#105dad" d="M 103.359375 355.761719 C 94.105469 355.761719 86.183594 352.464844 79.59375 345.875 C 73.003906 339.285156 69.707031 331.363281 69.707031 322.109375 C 69.707031 312.851562 73.003906 304.929688 79.59375 298.339844 C 86.183594 291.75 94.105469 288.453125 103.359375 288.453125 C 112.617188 288.453125 120.539062 291.75 127.128906 298.339844 C 133.71875 304.929688 137.015625 312.851562 137.015625 322.109375 C 137.015625 331.363281 133.71875 339.285156 127.128906 345.875 C 120.539062 352.464844 112.617188 355.761719 103.359375 355.761719 Z M 271.628906 355.761719 C 262.375 355.761719 254.449219 352.464844 247.859375 345.875 C 241.269531 339.285156 237.972656 331.363281 237.972656 322.109375 C 237.972656 312.851562 241.269531 304.929688 247.859375 298.339844 C 254.449219 291.75 262.375 288.453125 271.628906 288.453125 C 280.882812 288.453125 288.804688 291.75 295.394531 298.339844 C 301.984375 304.929688 305.28125 312.851562 305.28125 322.109375 C 305.28125 331.363281 301.984375 339.285156 295.394531 345.875 C 288.804688 352.464844 280.882812 355.761719 271.628906 355.761719 Z M 73.074219 52.882812 L 321.265625 52.882812 C 327.714844 52.882812 332.625 55.753906 335.988281 61.503906 C 339.355469 67.253906 339.496094 73.074219 336.410156 78.960938 L 276.675781 186.652344 C 273.589844 192.261719 269.453125 196.609375 264.265625 199.695312 C 259.078125 202.777344 253.398438 204.320312 247.230469 204.320312 L 121.871094 204.320312 L 103.359375 237.972656 L 305.28125 237.972656 L 305.28125 271.628906 L 103.359375 271.628906 C 90.742188 271.628906 81.207031 266.089844 74.757812 255.011719 C 68.304688 243.933594 68.023438 232.925781 73.914062 221.988281 L 96.628906 180.765625 L 36.054688 52.882812 L 2.402344 52.882812 L 2.402344 19.226562 L 57.089844 19.226562 Z M 73.074219 52.882812 " fill-opacity="1" fill-rule="nonzero"/></svg>