<svg xmlns="http://www.w3.org/2000/svg" xmlns:xlink="http://www.w3.org/1999/xlink" width="500" zoomAndPan="magnify" viewBox="0 0 375 374.999991" height="500" preserveAspectRatio="xMidYMid meet" version="1.0"><path fill="#1f1f1f" d="M 103.25 355.4375 C 94.003906 355.4375 86.085938 352.144531 79.503906 345.558594 C 72.917969 338.976562 69.625 331.058594 69.625 321.8125 C 69.625 312.566406 72.917969 304.648438 79.503906 298.066406 C 86.085938 291.480469 94.003906 288.1875 103.25 288.1875 C 112.496094 288.1875 120.414062 291.480469 126.996094 298.066406 C 133.582031 304.648438 136.875 312.566406 136.875 321.8125 C 136.875 331.058594 133.582031 338.976562 126.996094 345.558594 C 120.414062 352.144531 112.496094 355.4375 103.25 355.4375 Z M 271.375 355.4375 C 262.128906 355.4375 254.210938 352.144531 247.628906 345.558594 C 241.042969 338.976562 237.75 331.058594 237.75 321.8125 C 237.75 312.566406 241.042969 304.648438 247.628906 298.066406 C 254.210938 291.480469 262.128906 288.1875 271.375 288.1875 C 280.621094 288.1875 288.539062 291.480469 295.121094 298.066406 C 301.707031 304.648438 305 312.566406 305 321.8125 C 305 331.058594 301.707031 338.976562 295.121094 345.558594 C 288.539062 352.144531 280.621094 355.4375 271.375 355.4375 Z M 88.960938 86.4375 L 129.308594 170.5 L 246.996094 170.5 L 293.230469 86.4375 Z M 72.988281 52.8125 L 320.972656 52.8125 C 327.417969 52.8125 332.320312 55.683594 335.683594 61.429688 C 339.046875 67.171875 339.183594 72.988281 336.101562 78.871094 L 276.417969 186.472656 C 273.335938 192.078125 269.203125 196.417969 264.019531 199.5 C 258.835938 202.585938 253.160156 204.125 246.996094 204.125 L 121.742188 204.125 L 103.25 237.75 L 305 237.75 L 305 271.375 L 103.25 271.375 C 90.640625 271.375 81.113281 265.839844 74.667969 254.773438 C 68.222656 243.703125 67.945312 232.707031 73.828125 221.777344 L 96.523438 180.585938 L 36 52.8125 L 2.375 52.8125 L 2.375 19.1875 L 57.015625 19.1875 Z M 129.308594 170.5 L 246.996094 170.5 Z M 129.308594 170.5 " fill-opacity="1" fill-rule="nonzero"/></svg>